<?xml version="1.0" standalone="no"?><!DOCTYPE svg PUBLIC "-//W3C//DTD SVG 1.1//EN" "http://www.w3.org/Graphics/SVG/1.1/DTD/svg11.dtd"><svg t="1623481922443" class="icon" viewBox="0 0 1024 1024" version="1.1" xmlns="http://www.w3.org/2000/svg" p-id="2203" xmlns:xlink="http://www.w3.org/1999/xlink" width="200" height="200"><defs><style type="text/css"></style></defs><path d="M344.407934 453.627004c-29.198618-5.799725-56.39733 17.799157-56.39733 47.597746V602.019978c0 20.399034 14.199328 36.798258 33.398419 43.997917 36.398277 13.599356 62.597036 48.79769 62.597037 89.995739 0 52.997491-42.997964 95.995455-95.995456 95.995456s-95.995455-42.997964-95.995455-95.995456V240.037116c0-26.598741-21.398987-47.997728-47.997727-47.997728H48.021966c-26.598741 0-47.997728 21.398987-47.997727 47.997728v495.976518c0 178.991526 164.192227 320.384832 349.98343 281.386678 108.794849-22.798921 196.590693-110.794755 219.389614-219.389613 34.798353-165.792151-73.996497-314.385116-224.989349-344.383695zM418.00445 0.048478c-18.399129-0.999953-33.99839 13.599356-33.99839 31.998485v63.197008c0 16.999195 13.199375 30.998532 29.998579 31.798494 258.787748 13.999337 466.777901 223.989396 481.777191 482.977134 0.999953 16.799205 14.99929 29.99858 31.798495 29.99858h64.196961c18.399129 0 32.998438-15.599261 31.998485-33.99839C1006.776575 279.635241 744.388998 17.247663 418.00445 0.048478z m0.599972 191.99091c-18.599119-1.399934-34.598362 13.399366-34.598362 32.198476v64.19696c0 16.799205 12.999385 30.598551 29.598598 31.798495 153.592728 12.599403 275.986934 136.393543 289.786281 290.386252 1.599924 16.599214 15.19928 29.398608 31.798494 29.398608h64.396952c18.599119 0 33.598409-15.999243 32.198475-34.598362-16.799205-220.189575-192.990863-396.381234-413.180438-413.380429z" p-id="2204" fill="#515151"></path></svg>