<?xml version="1.0" encoding="UTF-8"?>
<svg version="1.1" xmlns="http://www.w3.org/2000/svg" width="512" height="512">
<path d="M0 0 C168.96 0 337.92 0 512 0 C512 168.96 512 337.92 512 512 C343.04 512 174.08 512 0 512 C0 343.04 0 174.08 0 0 Z " fill="#E1DEF3" transform="translate(0,0)"/>
<path d="M0 0 C84.48 0 168.96 0 256 0 C256 40.59 256 81.18 256 123 C253.03 123.99 250.06 124.98 247 126 C230.56574629 132.90360844 219.54257211 143.50055237 212.2265625 159.7265625 C206.24657078 175.68590345 207.39809753 193.46808445 214.28515625 208.875 C221.72711027 223.8003674 234.31040428 233.73538482 250 239 C252.97 239.99 252.97 239.99 256 241 C256 285.88 256 330.76 256 377 C171.52 377 87.04 377 0 377 C0 252.59 0 128.18 0 0 Z " fill="#F8F8F8" transform="translate(0,135)"/>
<path d="M0 0 C168.96 0 337.92 0 512 0 C512 44.55 512 89.1 512 135 C343.04 135 174.08 135 0 135 C0 90.45 0 45.9 0 0 Z " fill="#5E69E2" transform="translate(0,0)"/>
<path d="M0 0 C84.48 0 168.96 0 256 0 C256 44.55 256 89.1 256 135 C171.52 135 87.04 135 0 135 C0 90.45 0 45.9 0 0 Z " fill="#7D81E6" transform="translate(0,0)"/>
<path d="M0 0 C15.25045342 11.39252887 24.34161965 25.8256413 27.30078125 44.71875 C29.02475861 60.48683562 23.57278815 76.3201394 13.9765625 88.72265625 C3.71841849 100.55897627 -9.98458043 109.33690323 -25.89208984 110.93969727 C-44.74367935 111.90209686 -60.00640019 107.41881907 -74.51171875 94.96875 C-84.76741066 85.200019 -92.5791659 71.2768902 -92.9375 56.875 C-93.14861779 46.1298652 -93.13393509 36.68300328 -88.69921875 26.71875 C-88.28671875 25.78160156 -87.87421875 24.84445312 -87.44921875 23.87890625 C-80.3004297 9.39854662 -67.95593744 -1.01943609 -52.97900391 -6.68066406 C-35.31908686 -12.63305109 -15.61135553 -10.28512835 0 0 Z " fill="#0A4960" transform="translate(300.69921875,266.28125)"/>
<path d="M0 0 C0.8145314 -0.00807175 1.62906281 -0.01614349 2.46827698 -0.02445984 C4.19912587 -0.0383101 5.93000219 -0.04902803 7.66088867 -0.05688477 C9.41520294 -0.06833611 11.16948428 -0.0886777 12.92358398 -0.1184082 C25.62831937 -0.3337427 36.77319338 0.08058146 47.09375 8.47265625 C54.28097578 15.58124718 57.14845203 23.55294884 57.25390625 33.61328125 C57.18286651 40.13602113 56.03324821 44.61367149 52.87890625 50.23828125 C52.54890625 51.22828125 52.21890625 52.21828125 51.87890625 53.23828125 C52.32621094 53.63917969 52.77351563 54.04007812 53.234375 54.453125 C57.94486412 58.88239089 61.12329117 63.39679012 63.87890625 69.23828125 C64.245 69.98722656 64.61109375 70.73617187 64.98828125 71.5078125 C67.96581625 80.63630795 66.71309386 92.03175816 62.54296875 100.5234375 C56.62811689 110.17325451 48.96734104 116.57297827 37.98606873 119.79338074 C35.7610849 120.26315773 33.73794861 120.38575337 31.46508789 120.4152832 C30.16837914 120.43453606 30.16837914 120.43453606 28.84547424 120.45417786 C27.91935837 120.46156479 26.99324249 120.46895172 26.0390625 120.4765625 C25.07995468 120.48463425 24.12084686 120.49270599 23.13267517 120.50102234 C21.10612788 120.51483641 19.07955758 120.5255705 17.05297852 120.53344727 C13.95609679 120.55069941 10.86027217 120.59461405 7.76367188 120.63867188 C5.79297658 120.64879608 3.82227224 120.65731303 1.8515625 120.6640625 C0.92747086 120.68157059 0.00337921 120.69907867 -0.94871521 120.71711731 C-5.0988294 120.70312342 -7.48930799 120.61264042 -11.11938477 118.46166992 C-14.19229012 115.04845501 -15.36726524 112.40153167 -15.39524841 107.81143188 C-15.40522354 106.93111801 -15.41519867 106.05080414 -15.42547607 105.14381409 C-15.42614075 104.18579391 -15.42680542 103.22777374 -15.42749023 102.24072266 C-15.43581375 101.2256514 -15.44413727 100.21058014 -15.45271301 99.16474915 C-15.47682484 95.80640843 -15.48558639 92.44826187 -15.4921875 89.08984375 C-15.50115247 86.75580791 -15.51027429 84.42177267 -15.51954651 82.08773804 C-15.53604197 77.19356896 -15.54373773 72.29946833 -15.54663086 67.40527344 C-15.55201707 61.13481415 -15.58970541 54.86499833 -15.63537502 48.59472084 C-15.66511973 43.77342377 -15.67235386 38.95228219 -15.67335701 34.13090134 C-15.67756393 31.81922837 -15.690017 29.50755514 -15.71087456 27.19597244 C-15.73773572 23.96170993 -15.73297843 20.72894608 -15.72045898 17.49462891 C-15.73529327 16.5406572 -15.75012756 15.58668549 -15.76541138 14.60380554 C-15.71667424 10.18139409 -15.54653268 7.17754674 -12.70863342 3.65975952 C-8.58115897 -0.20282462 -5.42423176 0.05095344 0 0 Z " fill="#0C799C" transform="translate(66.12109375,256.76171875)"/>
<path d="M0 0 C6.93185622 5.07087139 6.93185622 5.07087139 7.5390625 8.32421875 C7.65932933 12.53355781 7.53278203 14.75929716 5.23046875 18.3984375 C0.98930899 21.08162021 -1.94393993 21.40589452 -6.83203125 20.3359375 C-10.01456686 18.96910518 -13.0130195 17.43705122 -16.03515625 15.74609375 C-23.7233085 11.86980469 -33.90637784 12.28588104 -42.08203125 14.4609375 C-53.11781552 18.26514281 -61.20568709 26.28771583 -66.83203125 36.3359375 C-70.53962016 45.08432366 -70.83814654 57.68163052 -67.44140625 66.58203125 C-62.90789821 76.49820875 -55.18588772 84.66373581 -45.14453125 89.1484375 C-36.77024873 92.15053878 -26.34235183 93.19184345 -17.95703125 89.7734375 C-6.53880377 83.6512339 -1.67537552 74.42271644 2.16796875 62.3359375 C1.16213745 62.3673584 1.16213745 62.3673584 0.13598633 62.39941406 C-2.91569905 62.48279777 -5.96714442 62.53466766 -9.01953125 62.5859375 C-10.07462891 62.61945313 -11.12972656 62.65296875 -12.21679688 62.6875 C-20.07493538 62.78665632 -20.07493538 62.78665632 -24.0078125 60.4453125 C-26.87188198 57.13354051 -27.16493634 54.76799759 -27.125 50.375 C-26.66948158 47.20459183 -25.07887468 45.5166973 -22.83203125 43.3359375 C-19.7058947 41.77286923 -16.37042502 42.15197272 -12.9375 42.1328125 C-11.76094597 42.12426239 -11.76094597 42.12426239 -10.56062317 42.11553955 C-8.89874624 42.1060861 -7.23685053 42.0995542 -5.57495117 42.09570312 C-3.03986587 42.08601521 -0.50559746 42.05500346 2.02929688 42.0234375 C3.64452644 42.01690553 5.2597618 42.01165582 6.875 42.0078125 C8.00806328 41.9892923 8.00806328 41.9892923 9.16401672 41.97039795 C14.93641801 41.99466354 18.12827639 43.29624514 22.16796875 47.3359375 C22.36892774 50.24984284 22.44592953 53.04835576 22.41796875 55.9609375 C22.42957031 57.13462891 22.42957031 57.13462891 22.44140625 58.33203125 C22.39193787 73.24674677 16.20839668 87.43668603 6.16796875 98.3359375 C-6.56530365 109.82833628 -20.94969584 113.2888686 -37.76416016 112.51074219 C-53.19012199 111.20672936 -66.53154616 102.43377452 -76.83203125 91.3359375 C-88.70426445 76.02995821 -91.10482078 60.12952459 -89.83203125 41.3359375 C-89.18027744 36.73762889 -87.71774516 32.57290093 -85.83203125 28.3359375 C-85.41953125 27.39878906 -85.00703125 26.46164062 -84.58203125 25.49609375 C-77.43241397 11.01405647 -65.0888685 0.60068638 -50.11230469 -5.0637207 C-33.45260715 -10.67551708 -15.19722945 -8.92968241 0 0 Z " fill="#0A485F" transform="translate(437.83203125,264.6640625)"/>
<path d="M0 0 C9.27618524 6.0177784 15.53254451 13.7967909 18.39453125 24.70703125 C20.02825345 36.39442854 18.91199623 47.72329225 12 57.5625 C4.4164473 66.72754736 -4.36448077 72.6454549 -16.25 74.25 C-27.62243219 75.30231921 -37.33930698 72.36055301 -46.25 65.25 C-49.0625 62.6875 -49.0625 62.6875 -51.25 60.25 C-51.930625 59.5075 -52.61125 58.765 -53.3125 58 C-60.57009087 47.69890329 -61.34354809 36.47785594 -60.25 24.25 C-59.38701836 20.84725891 -58.15445649 18.18194677 -56.25 15.25 C-55.610625 14.1775 -54.97125 13.105 -54.3125 12 C-47.98324016 3.56098687 -40.43457204 -2.0889934 -30.25 -4.75 C-29.59644531 -4.93433594 -28.94289063 -5.11867188 -28.26953125 -5.30859375 C-18.4819106 -7.44786093 -8.55023903 -4.84513545 0 0 Z " fill="#E1DEF3" transform="translate(288.25,282.75)"/>
<path d="M0 0 C0.77085937 0.04382813 1.54171875 0.08765625 2.3359375 0.1328125 C5.76203698 1.24366387 6.72709106 2.82637356 8.625 5.875 C9.18885475 8.94474874 9.13110473 11.95811638 9.07910156 15.0715332 C9.07968567 15.98909897 9.08026978 16.90666473 9.08087158 17.85203552 C9.07809067 20.87700575 9.04699799 23.90098372 9.015625 26.92578125 C9.00816265 29.02613283 9.00246969 31.12649138 8.99847412 33.22685242 C8.98321744 38.74914851 8.94393496 44.27102235 8.8996582 49.79315186 C8.85870646 55.43040251 8.84046329 61.06772153 8.8203125 66.70507812 C8.77744105 77.76190405 8.709189 88.81841688 8.625 99.875 C9.44701904 99.85928955 10.26903809 99.8435791 11.1159668 99.82739258 C14.84807428 99.76494927 18.58007172 99.72597864 22.3125 99.6875 C23.60607422 99.66236328 24.89964844 99.63722656 26.23242188 99.61132812 C27.47958984 99.60166016 28.72675781 99.59199219 30.01171875 99.58203125 C31.73201294 99.55846558 31.73201294 99.55846558 33.48706055 99.53442383 C37.00492719 99.91623539 38.81745628 100.75609323 41.625 102.875 C44.07105705 106.54408557 44.46446402 109.61118769 43.625 113.875 C41.44925584 116.56605198 39.71434144 118.33032928 36.625 119.875 C33.62125896 120.01092861 30.64190296 120.08778899 27.63671875 120.11328125 C26.74136917 120.121353 25.84601959 120.12942474 24.92353821 120.13774109 C23.02627501 120.1515843 21.12898687 120.16230539 19.23168945 120.17016602 C16.33431606 120.18737046 13.43808621 120.23125277 10.54101562 120.27539062 C8.69792506 120.28551832 6.85482479 120.29403418 5.01171875 120.30078125 C4.14697433 120.31828934 3.28222992 120.33579742 2.39128113 120.35383606 C-1.62639625 120.33939659 -3.82644579 120.20406018 -7.33666992 118.09838867 C-10.45282071 114.69932469 -11.62107615 112.05388958 -11.64915466 107.44815063 C-11.65912979 106.56783676 -11.66910492 105.68752289 -11.67938232 104.78053284 C-11.680047 103.82251266 -11.68071167 102.86449249 -11.68139648 101.87744141 C-11.68972 100.86237015 -11.69804352 99.84729889 -11.70661926 98.8014679 C-11.73073109 95.44312718 -11.73949264 92.08498062 -11.74609375 88.7265625 C-11.75505872 86.39252666 -11.76418054 84.05849142 -11.77345276 81.72445679 C-11.78994822 76.83028771 -11.79764398 71.93618708 -11.80053711 67.04199219 C-11.80592332 60.7715329 -11.84361166 54.50171708 -11.88928127 48.23143959 C-11.91902598 43.41014252 -11.92626011 38.58900094 -11.92726326 33.76762009 C-11.93147018 31.45594712 -11.94392325 29.14427389 -11.96478081 26.83269119 C-11.99164197 23.59842868 -11.98688468 20.36566483 -11.97436523 17.13134766 C-11.98919952 16.17737595 -12.00403381 15.22340424 -12.01931763 14.24052429 C-11.97058049 9.81811284 -11.80043893 6.81426549 -8.96253967 3.29647827 C-5.66898397 0.2142942 -4.37632506 -0.33440358 0 0 Z " fill="#0E7A9C" transform="translate(163.375,257.125)"/>
<path d="M0 0 C0 6.6 0 13.2 0 20 C0.66 20.33 1.32 20.66 2 21 C1.46632813 21.13535156 0.93265625 21.27070313 0.3828125 21.41015625 C-9.64909831 24.30864951 -16.67937641 29.67063015 -22.52734375 38.27734375 C-26.03987459 44.77133312 -27.53615613 50.42602031 -27.4375 57.8125 C-27.43137695 58.59786133 -27.42525391 59.38322266 -27.41894531 60.19238281 C-27.14194927 70.5520347 -23.63883036 78.69847958 -16.8125 86.5 C-11.10917356 91.5696235 -5.51567283 95.40092067 2 97 C1.01 97.495 1.01 97.495 0 98 C0 104.6 0 111.2 0 118 C-16.08437169 114.74482954 -29.63688309 106.472199 -38.875 92.625 C-47.63915965 77.79334521 -50.88979916 61.11657744 -47.31640625 44.05078125 C-46.40191171 40.90507182 -45.33146924 37.99164494 -44 35 C-43.5875 34.06285156 -43.175 33.12570312 -42.75 32.16015625 C-36.11598576 18.72250809 -24.43755677 7.67138986 -10.25 2.5546875 C-2.10358392 0 -2.10358392 0 0 0 Z " fill="#0D799C" transform="translate(256,258)"/>
<path d="M0 0 C0 25.08 0 50.16 0 76 C-7.85544663 74.42891067 -13.67260463 69.93624056 -19 64 C-20.0209375 62.88625 -20.0209375 62.88625 -21.0625 61.75 C-28.32009087 51.44890329 -29.09354809 40.22785594 -28 28 C-27.13701836 24.59725891 -25.90445649 21.93194677 -24 19 C-23.360625 17.9275 -22.72125 16.855 -22.0625 15.75 C-17.26128814 9.34838419 -8.63348454 0 0 0 Z " fill="#F7F8F8" transform="translate(256,279)"/>
<path d="M0 0 C1.00015892 -0.00574036 1.00015892 -0.00574036 2.02052307 -0.01159668 C3.42491168 -0.01430756 4.82935148 -0.00700396 6.23364258 0.00976562 C8.36981229 0.03115893 10.50260699 0.00995956 12.63867188 -0.015625 C14.00912193 -0.01298091 15.3795699 -0.00785424 16.75 0 C17.98548584 0.00451172 19.22097168 0.00902344 20.49389648 0.01367188 C25.7762536 0.80671749 28.83800151 3.28266042 32.31640625 7.21875 C34.41790977 11.50258409 34.76595077 14.84480821 33.94140625 19.53125 C31.55244931 24.40104684 28.60810583 26.85038003 23.94140625 29.53125 C18.98990354 31.1817509 13.87646355 30.79960933 8.69140625 30.84375 C7.57121094 30.87275391 6.45101562 30.90175781 5.296875 30.93164062 C-1.41211589 30.98312639 -5.6418291 30.60495383 -11.05859375 26.53125 C-15.26565519 21.88133999 -16.41885903 19.00097087 -16.33984375 12.84765625 C-15.7792807 8.23079665 -13.07509117 5.51609802 -9.85522461 2.39648438 C-6.34280542 0.05384949 -4.19817015 0.01534479 0 0 Z " fill="#FC80A8" transform="translate(222.05859375,52.46875)"/>
<path d="M0 0 C1.00015892 -0.00574036 1.00015892 -0.00574036 2.02052307 -0.01159668 C3.42491168 -0.01430756 4.82935148 -0.00700396 6.23364258 0.00976562 C8.36981229 0.03115893 10.50260699 0.00995956 12.63867188 -0.015625 C14.00912193 -0.01298091 15.3795699 -0.00785424 16.75 0 C17.98548584 0.00451172 19.22097168 0.00902344 20.49389648 0.01367188 C25.7762536 0.80671749 28.83800151 3.28266042 32.31640625 7.21875 C34.41790977 11.50258409 34.76595077 14.84480821 33.94140625 19.53125 C31.55244931 24.40104684 28.60810583 26.85038003 23.94140625 29.53125 C18.98990354 31.1817509 13.87646355 30.79960933 8.69140625 30.84375 C7.57121094 30.87275391 6.45101562 30.90175781 5.296875 30.93164062 C-1.41211589 30.98312639 -5.6418291 30.60495383 -11.05859375 26.53125 C-15.26565519 21.88133999 -16.41885903 19.00097087 -16.33984375 12.84765625 C-15.7792807 8.23079665 -13.07509117 5.51609802 -9.85522461 2.39648438 C-6.34280542 0.05384949 -4.19817015 0.01534479 0 0 Z " fill="#FCF4A0" transform="translate(62.05859375,52.46875)"/>
<path d="M0 0 C4.62 -0.103125 9.24 -0.20625 14 -0.3125 C15.44117187 -0.35802002 16.88234375 -0.40354004 18.3671875 -0.45043945 C25.87852837 -0.53147076 31.30729853 -0.1971484 37 5 C40.48800759 8.66240797 41.28448195 11.51425945 41.5 16.4375 C41.23892327 22.45042334 39.91723125 26.23960392 35.53320312 30.38793945 C28.89206322 35.26976958 21.93244679 34.56304967 14 34.3125 C9.38 34.209375 4.76 34.10625 0 34 C0 22.78 0 11.56 0 0 Z " fill="#F4F6F7" transform="translate(71,323)"/>
<path d="M0 0 C1.00015892 -0.00574036 1.00015892 -0.00574036 2.02052307 -0.01159668 C3.42491168 -0.01430756 4.82935148 -0.00700396 6.23364258 0.00976562 C8.36981229 0.03115893 10.50260699 0.00995956 12.63867188 -0.015625 C14.00912193 -0.01298091 15.3795699 -0.00785424 16.75 0 C17.98548584 0.00451172 19.22097168 0.00902344 20.49389648 0.01367188 C25.80447536 0.81095445 28.8640153 3.28374469 32.31640625 7.28125 C34.31838927 11.28521605 34.66073412 14.14510443 33.94140625 18.53125 C31.98754704 23.87865414 29.02904338 26.98743143 23.94140625 29.53125 C19.60863533 29.83662624 15.27240449 29.88763649 10.93041992 29.9362793 C9.48811812 29.95779653 8.04594469 29.99182609 6.60424805 30.03881836 C-6.90232852 30.47471454 -6.90232852 30.47471454 -11.421875 26.75390625 C-14.67591233 23.34705651 -16.35080649 19.87512384 -16.43359375 15.15625 C-16.29275911 9.43836346 -13.90033592 6.31564817 -9.85522461 2.39648438 C-6.34280542 0.05384949 -4.19817015 0.01534479 0 0 Z " fill="#8FE26B" transform="translate(142.05859375,52.46875)"/>
<path d="M0 0 C5.506875 -0.12375 5.506875 -0.12375 11.125 -0.25 C12.2711377 -0.28641602 13.41727539 -0.32283203 14.59814453 -0.36035156 C22.1311653 -0.44224658 25.31054966 0.67949469 30.875 5.6875 C32.67283083 9.38304115 32.53311415 12.97282689 32 17 C30.37522535 20.73698169 28.44378693 22.84763317 25 25 C21.99984088 26.00005304 20.02576244 26.11575585 16.89453125 26.09765625 C15.56578979 26.09390991 15.56578979 26.09390991 14.21020508 26.09008789 C13.0889624 26.08098389 11.96771973 26.07187988 10.8125 26.0625 C7.244375 26.041875 3.67625 26.02125 0 26 C0 17.42 0 8.84 0 0 Z " fill="#F4F6F7" transform="translate(71,277)"/>
<path d="M0 0 C1.10845475 2.21690951 2.20116477 4.44269062 3.2265625 6.69921875 C8.85221932 18.72052452 16.07723317 27.11909564 28.63671875 32.03125 C30.7464927 32.74665216 32.85257368 33.40867971 35 34 C35 34.33 35 34.66 35 35 C23.45 35 11.9 35 0 35 C0 23.45 0 11.9 0 0 Z " fill="#000000" transform="translate(0,477)"/>
<path d="M0 0 C0.33 0 0.66 0 1 0 C1 11.55 1 23.1 1 35 C-10.55 35 -22.1 35 -34 35 C-31.78309049 33.89154525 -29.55730938 32.79883523 -27.30078125 31.7734375 C-15.27947548 26.14778068 -6.88090436 18.92276683 -1.96875 6.36328125 C-1.25334784 4.2535073 -0.59132029 2.14742632 0 0 Z " fill="#000000" transform="translate(511,477)"/>
<path d="M0 0 C11.55 0 23.1 0 35 0 C35 11.55 35 23.1 35 35 C33.89154525 32.78309049 32.79883523 30.55730938 31.7734375 28.30078125 C26.14778068 16.27947548 18.92276683 7.88090436 6.36328125 2.96875 C4.2535073 2.25334784 2.14742632 1.59132029 0 1 C0 0.67 0 0.34 0 0 Z " fill="#000000" transform="translate(477,0)"/>
<path d="M0 0 C11.55 0 23.1 0 35 0 C32.78309049 1.10845475 30.55730938 2.20116477 28.30078125 3.2265625 C16.27947548 8.85221932 7.88090436 16.07723317 2.96875 28.63671875 C2.25334784 30.7464927 1.59132029 32.85257368 1 35 C0.67 35 0.34 35 0 35 C0 23.45 0 11.9 0 0 Z " fill="#000000" transform="translate(0,0)"/>
</svg>
