<?xml version="1.0" standalone="no"?><!DOCTYPE svg PUBLIC "-//W3C//DTD SVG 1.1//EN" "http://www.w3.org/Graphics/SVG/1.1/DTD/svg11.dtd"><svg t="1623481848673" class="icon" viewBox="0 0 1024 1024" version="1.1" xmlns="http://www.w3.org/2000/svg" p-id="5586" xmlns:xlink="http://www.w3.org/1999/xlink" width="200" height="200"><defs><style type="text/css"></style></defs><path d="M512 1014.44266667c-277.43573333 0-502.44266667-225.00693333-502.44266667-502.44266667s225.00693333-502.44266667 502.44266667-502.44266667 502.44266667 225.00693333 502.44266667 502.44266667-225.00693333 502.44266667-502.44266667 502.44266667z m-148.54826667-782.06293334c-24.02986667 61.16693333-61.16693333 126.70293333-113.59573333 192.23893334 0 6.5536 2.18453333 8.73813333 4.36906667 4.36906666 41.50613333-34.95253333 80.82773333-69.90506667 117.9648-104.8576l39.3216-2.18453333c6.5536 8.73813333 10.92266667 24.02986667 10.92266666 50.24426667 0 8.73813333 6.5536 10.92266667 19.6608 8.73813333 13.1072-2.18453333 19.6608-10.92266667 21.84533334-24.02986667 0-13.1072-10.92266667-26.2144-30.58346667-39.3216l102.67306667-4.36906666c2.18453333 0 2.18453333 0 4.36906666-2.18453334l-2.18453333-4.36906666-41.50613333-34.95253334-30.58346667 32.768-78.6432 4.36906667 8.73813333-10.92266667c8.73813333-8.73813333 17.47626667-15.29173333 26.2144-19.6608 4.36906667-2.18453333 4.36906667-6.5536 2.18453334-8.73813333l-61.16693334-37.13706667z m6.5536 259.95946667l6.5536-21.84533333 2.18453334-4.36906667c-2.18453333-2.18453333-2.18453333-2.18453333-4.36906667-2.18453333l-52.4288-21.84533334 2.18453333 83.01226667v93.93493333l-4.36906666 170.3936c2.18453333 4.36906667 4.36906667 4.36906667 10.92266666 0 21.84533333-24.02986667 32.768-45.8752 34.95253334-67.72053333l4.36906666-229.376z m21.84533334-111.4112c-4.36906667-2.18453333-6.5536 0-4.36906667 4.36906667 8.73813333 8.73813333 19.6608 28.39893333 32.768 63.35146666 4.36906667 8.73813333 10.92266667 10.92266667 19.6608 6.5536 10.92266667-6.5536 17.47626667-19.6608 21.84533333-37.13706666-2.18453333-10.92266667-26.2144-21.84533333-69.90506666-37.13706667z m69.90506666 277.43573333l100.48853334-4.36906666c2.18453333 2.18453333 4.36906667 8.73813333 6.5536 13.1072 4.36906667 6.5536 8.73813333 10.92266667 8.73813333 15.29173333 4.36906667 6.5536 10.92266667 6.5536 19.6608 0 17.47626667-21.84533333 26.2144-39.3216 28.39893333-56.79786667l-2.18453333-100.48853333 13.1072-21.84533333c0-2.18453333 0-4.36906667-2.18453333-4.36906667l-45.8752-26.2144-19.6608 26.2144-107.04213334 4.36906667-32.768-21.84533334c-4.36906667-2.18453333-6.5536-2.18453333-4.36906666 2.18453334v198.79253333c2.18453333 8.73813333 4.36906667 8.73813333 10.92266666 4.36906667 13.1072-4.36906667 21.84533333-15.29173333 26.2144-28.39893334z m109.22666667-144.1792v131.072l-109.22666667 4.36906667-2.18453333-65.536 93.93493333-4.36906667c4.36906667 0 6.5536-2.18453333 6.5536-4.36906666s-2.18453333-4.36906667-4.36906666-4.36906667l-96.11946667 4.36906667v-58.9824l111.4112-2.18453334z m8.73813333-74.27413333l93.93493334-4.36906667 2.18453333 273.06666667c2.18453333 17.47626667-10.92266667 24.02986667-43.69066667 24.02986667-2.18453333 0-2.18453333 0-2.18453333 2.18453333s0 2.18453333 2.18453333 4.36906667c13.1072 10.92266667 21.84533333 26.2144 24.02986667 48.05973333-2.18453333 2.18453333-2.18453333 4.36906667 0 6.5536 2.18453333 2.18453333 4.36906667 2.18453333 6.5536 0 50.24426667-32.768 72.0896-69.90506667 69.90506667-113.59573333l-2.18453334-93.93493334-2.18453333-133.25653333 19.6608-24.02986667c2.18453333-2.18453333 4.36906667-2.18453333 2.18453333-4.36906666-2.18453333 0-2.18453333 0-2.18453333-2.18453334l-48.05973333-30.58346666-24.02986667 26.2144-181.31626667 8.73813333 15.29173334 15.29173333c17.47626667 0 41.50613333-2.18453333 69.90506666-2.18453333z m0-211.89973333c-13.1072 45.8752-37.13706667 102.67306667-67.72053333 168.20906666-2.18453333 2.18453333-2.18453333 4.36906667 0 4.36906667s4.36906667 0 6.5536-2.18453333c13.1072-13.1072 30.58346667-32.768 48.05973333-56.79786667 8.73813333-10.92266667 15.29173333-19.6608 21.84533334-24.02986667l37.13706666-2.18453333c8.73813333 13.1072 15.29173333 34.95253333 15.29173334 67.72053333 0 8.73813333 6.5536 13.1072 19.6608 10.92266667 15.29173333-8.73813333 24.02986667-19.6608 28.39893333-32.768 0-13.1072-15.29173333-28.39893333-45.8752-45.8752l126.70293333-6.5536c2.18453333 0 2.18453333-2.18453333 0-4.36906667l-41.50613333-34.95253333-30.58346667 32.768-100.48853333 4.36906667c2.18453333-2.18453333 6.5536-6.5536 8.73813333-10.92266667 2.18453333-2.18453333 2.18453333-4.36906667 4.36906667-6.5536 6.5536-8.73813333 13.1072-15.29173333 24.02986667-19.6608 4.36906667-2.18453333 4.36906667-4.36906667 2.18453333-6.5536l-56.79786667-34.95253333z" fill="#F09589" p-id="5587"></path></svg>