<?xml version="1.0" encoding="UTF-8"?>
<svg version="1.1" xmlns="http://www.w3.org/2000/svg" width="512" height="512">
<path d="M0 0 C1.01790619 0.00215515 2.03581238 0.0043103 3.08456421 0.00653076 C17.69363523 0.05620146 32.02575853 0.30709809 46.375 3.3125 C47.34985352 3.51117676 48.32470703 3.70985352 49.32910156 3.91455078 C97.7109774 14.03517194 141.69928269 35.9516877 177.375 70.3125 C178.3640332 71.26068604 178.3640332 71.26068604 179.37304688 72.22802734 C188.86130305 81.37247479 197.6012044 90.66984009 205.375 101.3125 C206.23306152 102.46355017 207.09113451 103.61459177 207.94921875 104.765625 C213.98736829 112.95680614 219.34595521 121.47054105 224.375 130.3125 C224.73948242 130.94430176 225.10396484 131.57610352 225.47949219 132.22705078 C247.08534998 169.97532572 256.85198095 212.74189997 256.6875 255.9375 C256.68534485 256.95540619 256.6831897 257.97331238 256.68096924 259.02206421 C256.63129854 273.63113523 256.38040191 287.96325853 253.375 302.3125 C253.07698486 303.77478027 253.07698486 303.77478027 252.77294922 305.26660156 C242.65232806 353.6484774 220.7358123 397.63678269 186.375 433.3125 C185.74287598 433.97185547 185.11075195 434.63121094 184.45947266 435.31054688 C175.31502521 444.79880305 166.01765991 453.5387044 155.375 461.3125 C154.22394983 462.17056152 153.07290823 463.02863451 151.921875 463.88671875 C143.73224019 469.92427396 135.22961724 475.30707302 126.375 480.3125 C125.66778809 480.7146875 124.96057617 481.116875 124.23193359 481.53125 C101.09654164 494.5566741 75.92537591 503.30551461 49.9375 508.625 C49.21860596 508.77235596 48.49971191 508.91971191 47.7590332 509.0715332 C33.08339502 511.86090125 18.55831162 512.66142619 3.64770508 512.62817383 C0.70811513 512.6250221 -2.2304558 512.64854926 -5.16992188 512.67382812 C-18.54306192 512.71848737 -31.43916711 511.51301542 -44.625 509.3125 C-46.33055054 509.03031616 -46.33055054 509.03031616 -48.07055664 508.74243164 C-91.33802759 500.97044532 -132.38793216 480.98345309 -165.625 452.3125 C-166.37007813 451.67828125 -167.11515625 451.0440625 -167.8828125 450.390625 C-181.38779833 438.57948485 -194.05918743 425.82889772 -204.625 411.3125 C-205.48149066 410.16255169 -206.33826433 409.01281411 -207.1953125 407.86328125 C-213.23534209 399.67315742 -218.61867614 391.16870382 -223.625 382.3125 C-224.0271875 381.60528809 -224.429375 380.89807617 -224.84375 380.16943359 C-237.8691741 357.03404164 -246.61801461 331.86287591 -251.9375 305.875 C-252.08485596 305.15610596 -252.23221191 304.43721191 -252.3840332 303.6965332 C-255.35789088 288.05024391 -255.99800362 272.57681954 -255.9375 256.6875 C-255.93534485 255.66959381 -255.9331897 254.65168762 -255.93096924 253.60293579 C-255.88129854 238.99386477 -255.63040191 224.66174147 -252.625 210.3125 C-252.42632324 209.33764648 -252.22764648 208.36279297 -252.02294922 207.35839844 C-241.90232806 158.9765226 -219.9858123 114.98821731 -185.625 79.3125 C-184.99287598 78.65314453 -184.36075195 77.99378906 -183.70947266 77.31445312 C-174.56502521 67.82619695 -165.26765991 59.0862956 -154.625 51.3125 C-153.47394983 50.45443848 -152.32290823 49.59636549 -151.171875 48.73828125 C-142.98224019 42.70072604 -134.47961724 37.31792698 -125.625 32.3125 C-124.91778809 31.9103125 -124.21057617 31.508125 -123.48193359 31.09375 C-100.34654164 18.0683259 -75.17537591 9.31948539 -49.1875 4 C-48.46860596 3.85264404 -47.74971191 3.70528809 -47.0090332 3.5534668 C-31.36274391 0.57960912 -15.88931954 -0.06050362 0 0 Z " fill="#000000" transform="translate(255.625,-0.3125)"/>
<path d="M0 0 C11.30006783 -0.34842938 22.59884773 -0.61449683 33.90320396 -0.77718258 C39.15338952 -0.85529267 44.39988697 -0.96109377 49.64794922 -1.1315918 C54.71873385 -1.29528846 59.78598728 -1.38439541 64.85921097 -1.42315865 C66.78852588 -1.45075557 68.71765913 -1.5046596 70.64545822 -1.58595085 C85.34986797 -2.18101339 85.34986797 -2.18101339 89.77689552 1.46235466 C92.89382392 5.01843936 95.0815425 8.9585474 97.11096954 13.20852184 C98.32585991 15.65663769 99.84480428 17.84007893 101.43359375 20.05859375 C101.93133301 20.78522217 102.42907227 21.51185059 102.94189453 22.26049805 C103.43544434 22.97890869 103.92899414 23.69731934 104.4375 24.4375 C104.9826123 25.23260986 105.52772461 26.02771973 106.08935547 26.84692383 C107.72508974 29.23207254 109.3622806 31.61621402 111 34 C111.48645996 34.70833984 111.97291992 35.41667969 112.47412109 36.14648438 C115.19993316 40.11507076 117.92800524 44.08209746 120.65722656 48.04833984 C122.93908519 51.36491764 125.21945755 54.6825171 127.5 58 C128.41665976 59.33333808 129.33332642 60.66667142 130.25 62 C132.08333333 64.66666667 133.91666667 67.33333333 135.75 70 C136.2039917 70.66032227 136.6579834 71.32064453 137.12573242 72.00097656 C138.04006826 73.33097867 138.95429398 74.6610565 139.8684082 75.99121094 C142.19482773 79.37614927 144.52329465 82.75964843 146.85546875 86.140625 C152.30711384 94.04854686 157.70347796 101.98692367 163 110 C170.76762167 102.3150126 177.92532375 94.18303472 184.78515625 85.68359375 C187.66480887 82.19449084 190.70693876 78.87003079 193.75390625 75.52734375 C196.06187598 72.93037607 198.25555863 70.26595987 200.4375 67.5625 C204.29708603 62.79003797 208.37199991 58.26890891 212.52734375 53.75390625 C215.74709519 50.16792716 218.75905176 46.43298508 221.78515625 42.68359375 C224.66480887 39.19449084 227.70693876 35.87003079 230.75390625 32.52734375 C233.06187598 29.93037607 235.25555863 27.26595987 237.4375 24.5625 C241.29020913 19.79376212 245.34995241 15.2719413 249.54296875 10.80078125 C251.96152419 8.24239275 251.96152419 8.24239275 253.16503906 5.90576172 C254.60063667 3.46869727 255.79754069 1.78958197 258 0 C262.49386085 -0.98612665 266.80217576 -0.7576239 271.375 -0.5 C273.19451172 -0.44585937 273.19451172 -0.44585937 275.05078125 -0.390625 C278.03710076 -0.29656769 281.01691402 -0.16526792 284 0 C282.73735096 2.7153387 281.39649574 4.9004586 279.41796875 7.14453125 C278.64827759 8.02443726 278.64827759 8.02443726 277.86303711 8.92211914 C277.03364624 9.85785767 277.03364624 9.85785767 276.1875 10.8125 C275.00511024 12.16137235 273.82282138 13.51033316 272.640625 14.859375 C272.03541016 15.54708984 271.43019531 16.23480469 270.80664062 16.94335938 C268.00164201 20.13650914 265.21940761 23.34923664 262.4375 26.5625 C261.9002832 27.1822168 261.36306641 27.80193359 260.80957031 28.44042969 C255.17997559 34.93768019 249.5883842 41.46730798 244 48 C237.31098326 55.81930603 230.60251244 63.62065546 223.85791016 71.39208984 C218.70838251 77.32888478 213.59299766 83.29453455 208.48388672 89.26611328 C205.49513644 92.75839766 202.50256972 96.24741253 199.51074219 99.73706055 C196.94732637 102.72729265 194.38490898 105.71837083 191.82421875 108.7109375 C186.58169828 114.83584638 181.33301115 120.95341693 176 127 C177.75600102 130.83472656 180.08831458 134.26269428 182.4375 137.75 C182.87779541 138.40685791 183.31809082 139.06371582 183.77172852 139.74047852 C188.33082506 146.52485795 192.96472735 153.25758235 197.60888672 159.98388672 C199.91044181 163.31948552 202.20489606 166.65996073 204.5 170 C205.41922941 171.33726806 206.33850022 172.67450766 207.2578125 174.01171875 C207.71188477 174.67220215 208.16595703 175.33268555 208.63378906 176.01318359 C209.98204663 177.97389125 211.33079868 179.93425783 212.6796875 181.89453125 C218.18518464 189.89670733 223.67634388 197.90854995 229.15917969 205.92626953 C233.98034499 212.97489904 238.81630573 220.013269 243.65722656 227.04833984 C245.93908519 230.36491764 248.21945755 233.6825171 250.5 237 C251.41665976 238.33333808 252.33332642 239.66667142 253.25 241 C258.75 249 264.25 257 269.75 265 C270.2042334 265.66064453 270.6584668 266.32128906 271.12646484 267.00195312 C272.03846998 268.32862395 272.95025566 269.65544567 273.86181641 270.98242188 C276.22298102 274.41899349 278.58847875 277.85246371 280.9609375 281.28125 C281.44884766 281.98765625 281.93675781 282.6940625 282.43945312 283.421875 C283.36119257 284.75620258 284.28425639 286.08961682 285.20898438 287.421875 C287.43511663 290.64756436 289.58662887 293.90402758 291.65673828 297.23242188 C292.09817169 297.94136597 292.5396051 298.65031006 292.99441528 299.3807373 C293.32625824 299.91509399 293.6581012 300.44945068 294 301 C282.73476484 301.39529454 271.47119787 301.696624 260.20042038 301.88080692 C254.96541875 301.96925111 249.73518568 302.08898346 244.50292969 302.2824707 C239.4449993 302.46832326 234.39162627 302.56904191 229.33054352 302.61291313 C227.40829927 302.64413457 225.48628321 302.70512127 223.56600189 302.79741096 C208.94542885 303.47160789 208.94542885 303.47160789 204.0263195 299.34381866 C200.40920843 295.29183857 197.6838625 290.8056329 195.11892891 286.0360527 C193.60602752 283.28311018 191.82796276 280.74945668 190.00390625 278.1953125 C188.85535449 276.50617053 187.70820401 274.81607483 186.5625 273.125 C185.287897 271.24990715 184.01315482 269.3749089 182.73828125 267.5 C182.1138916 266.58089844 181.48950195 265.66179687 180.84619141 264.71484375 C177.98867408 260.51283467 175.12021498 256.31834238 172.25 252.125 C171.71785889 251.34745361 171.18571777 250.56990723 170.63745117 249.76879883 C165.8821013 242.82318601 161.11443189 235.88607542 156.34277344 228.95166016 C153.60575245 224.97352456 150.8705437 220.9941423 148.13549805 217.01464844 C145.78368067 213.5930589 143.43027698 210.17257726 141.07421875 206.75390625 C140.11196815 205.35677842 139.14972838 203.95964313 138.1875 202.5625 C137.72738525 201.89532959 137.26727051 201.22815918 136.79321289 200.54077148 C133.83269084 196.23941179 130.93447443 191.90346595 128.12109375 187.50390625 C127.05688952 185.84102003 127.05688952 185.84102003 125 185 C124.76410156 185.55558594 124.52820313 186.11117187 124.28515625 186.68359375 C122.6872248 189.56375591 120.694995 191.66369076 118.4375 194.0625 C114.96608181 197.79595956 111.6408372 201.59216657 108.4375 205.5625 C105.55151207 209.13828469 102.59555196 212.60401318 99.5 216 C96.38541332 219.41739372 93.4081338 222.9052235 90.5 226.5 C86.88850866 230.96420457 83.11339306 235.23002114 79.24609375 239.47265625 C76.93812402 242.06962393 74.74444137 244.73404013 72.5625 247.4375 C68.70291397 252.20996203 64.62800009 256.73109109 60.47265625 261.24609375 C57.25290481 264.83207284 54.24094824 268.56701492 51.21484375 272.31640625 C48.341629 275.79770877 45.3071448 279.11524512 42.265625 282.44921875 C39.09653562 286.01717628 36.1159006 289.72691721 33.140625 293.45703125 C32.43421875 294.29621094 31.7278125 295.13539063 31 296 C30.35160156 296.92554688 29.70320313 297.85109375 29.03515625 298.8046875 C24.1416514 302.34413374 19.0514946 301.52603482 13.1875 301.3125 C12.01767578 301.28994141 10.84785156 301.26738281 9.64257812 301.24414062 C6.76041231 301.18532091 3.88086319 301.10317141 1 301 C2.61817175 297.59170063 4.47765964 295.20469242 7.0625 292.4375 C10.33018473 288.87703072 13.46479193 285.2606708 16.5 281.5 C20.11149134 277.03579543 23.88660694 272.76997886 27.75390625 268.52734375 C30.06187598 265.93037607 32.25555863 263.26595987 34.4375 260.5625 C38.29708603 255.79003797 42.37199991 251.26890891 46.52734375 246.75390625 C49.74709519 243.16792716 52.75905176 239.43298508 55.78515625 235.68359375 C58.66480887 232.19449084 61.70693876 228.87003079 64.75390625 225.52734375 C67.06187598 222.93037607 69.25555863 220.26595987 71.4375 217.5625 C75.29708603 212.79003797 79.37199991 208.26890891 83.52734375 203.75390625 C86.74709519 200.16792716 89.75905176 196.43298508 92.78515625 192.68359375 C94.95632827 190.05291443 97.20241357 187.52057576 99.5 185 C101.00249157 183.33557912 102.50240187 181.66882522 104 180 C104.85851562 179.04480469 105.71703125 178.08960938 106.6015625 177.10546875 C107.43429688 176.14253906 108.26703125 175.17960938 109.125 174.1875 C109.89070313 173.31480469 110.65640625 172.44210937 111.4453125 171.54296875 C113.23366559 169.13434251 113.23366559 169.13434251 112.9375 166.453125 C111.89571838 163.72712975 110.67004733 161.86653261 108.875 159.5625 C104.63409905 153.92826893 100.64575801 148.14852063 96.6875 142.3125 C95.3737448 140.37887439 94.05994298 138.44528047 92.74609375 136.51171875 C92.10913574 135.57376465 91.47217773 134.63581055 90.81591797 133.66943359 C88.3059188 129.97968757 85.78062547 126.30061918 83.25 122.625 C82.81051025 121.98643066 82.37102051 121.34786133 81.91821289 120.68994141 C81.04620445 119.42324122 80.17405465 118.15663833 79.30175781 116.89013672 C72.46467675 106.96277708 65.64498892 97.02367568 58.84082031 87.07373047 C54.01965501 80.02510096 49.18369427 72.986731 44.34277344 65.95166016 C42.06091481 62.63508236 39.78054245 59.3174829 37.5 56 C36.58334024 54.66666192 35.66667358 53.33332858 34.75 52 C29.25 44 29.25 44 27.87475586 41.99951172 C26.9590688 40.66769197 26.04321622 39.33598602 25.12719727 38.00439453 C22.8191642 34.6488222 20.51414141 31.29125262 18.21484375 27.9296875 C17.28923352 26.57800787 16.36345347 25.22644452 15.4375 23.875 C14.98914795 23.21999512 14.5407959 22.56499023 14.07885742 21.89013672 C11.78432791 18.55045502 9.46137948 15.23584282 7.0859375 11.953125 C6.62002197 11.30875488 6.15410645 10.66438477 5.67407227 10.00048828 C4.78575744 8.77688518 3.89320162 7.55634649 2.99584961 6.33935547 C0 2.21799668 0 2.21799668 0 0 Z " fill="#FBFBFB" transform="translate(109,105)"/>
<path d="M0 0 C5.53134376 -0.29847445 11.05793637 -0.51516089 16.59545898 -0.65917969 C18.4748705 -0.71923819 20.35372791 -0.80092379 22.23120117 -0.90527344 C37.74308722 -1.74531186 37.74308722 -1.74531186 43.02319336 2.33789062 C45.36654422 5.44129462 47.1847184 8.56444414 49 12 C50.27052798 13.85077793 51.56552975 15.68503997 52.88671875 17.5 C54.15581154 19.33183482 55.4226902 21.16520532 56.6875 23 C58.08437572 25.01710695 59.48151598 27.03403073 60.87890625 29.05078125 C61.57000488 30.04932129 62.26110352 31.04786133 62.97314453 32.07666016 C66.0099395 36.45663882 69.06608863 40.82295044 72.125 45.1875 C72.69436279 46.00025391 73.26372559 46.81300781 73.8503418 47.65039062 C74.99419264 49.28311796 76.13815369 50.91576808 77.28222656 52.54833984 C80.77500481 57.53334256 84.2646291 62.52055381 87.75488281 67.50732422 C90.64548192 71.63709659 93.53676689 75.7663847 96.4296875 79.89453125 C103.31728062 89.72500507 110.18294378 99.57042296 117.03417969 109.42626953 C123.09800618 118.14686679 129.18658311 126.84996444 135.28222656 135.54833984 C138.1896209 139.69786428 141.09468001 143.84902306 144 148 C145.16665575 149.66667431 146.33332241 151.33334098 147.5 153 C149.83333333 156.33333333 152.16666667 159.66666667 154.5 163 C155.07733887 163.8247583 155.65467773 164.6495166 156.24951172 165.49926758 C157.41784967 167.16834507 158.58614384 168.83745322 159.75439453 170.5065918 C162.64513489 174.63662338 165.53659854 178.76614446 168.4296875 182.89453125 C175.31728062 192.72500507 182.18294378 202.57042296 189.03417969 212.42626953 C193.38764807 218.68714202 197.75120723 224.94081092 202.125 231.1875 C202.68461426 231.98784668 203.24422852 232.78819336 203.82080078 233.61279297 C206.86152078 237.9588062 209.91554537 242.2948758 212.984375 246.62109375 C213.63519043 247.54188721 214.28600586 248.46268066 214.95654297 249.41137695 C216.21212986 251.18738209 217.47143002 252.96076929 218.73486328 254.73120117 C219.29415527 255.52373291 219.85344727 256.31626465 220.4296875 257.1328125 C220.92710449 257.83293457 221.42452148 258.53305664 221.93701172 259.25439453 C223 261 223 261 223 263 C217.6110842 263.29855489 212.22705013 263.51519082 206.83178711 263.65917969 C205.00085579 263.7192261 203.17049285 263.80090323 201.34155273 263.90527344 C186.2307502 264.74544889 186.2307502 264.74544889 181.00366211 260.65551758 C178.66179039 257.55345713 176.82713381 254.42716909 175 251 C173.75208144 249.18493289 172.48061222 247.3857812 171.18359375 245.60546875 C169.9326537 243.80103148 168.68401596 241.99499629 167.4375 240.1875 C166.04301953 238.17444399 164.64848676 236.1614242 163.25390625 234.1484375 C162.19840576 232.62234863 162.19840576 232.62234863 161.12158203 231.06542969 C157.71417485 226.14213803 154.29470209 221.22725609 150.875 216.3125 C150.21185791 215.35907715 149.54871582 214.4056543 148.86547852 213.42333984 C142.83359619 204.75394243 136.7788278 196.10067756 130.71777344 187.45166016 C127.8103791 183.30213572 124.90531999 179.15097694 122 175 C120.83334425 173.33332569 119.66667759 171.66665902 118.5 170 C111.5 160 104.5 150 97.5 140 C96.92266113 139.1752417 96.34532227 138.3504834 95.75048828 137.50073242 C94.58215033 135.83165493 93.41385616 134.16254678 92.24560547 132.4934082 C89.35486511 128.36337662 86.46340146 124.23385554 83.5703125 120.10546875 C76.68271938 110.27499493 69.81705622 100.42957704 62.96582031 90.57373047 C56.90199382 81.85313321 50.81341689 73.15003556 44.71777344 64.45166016 C41.8103791 60.30213572 38.90531999 56.15097694 36 52 C34.83334425 50.33332569 33.66667759 48.66665902 32.5 47 C30.16666667 43.66666667 27.83333333 40.33333333 25.5 37 C24.92145264 36.1735498 24.34290527 35.34709961 23.74682617 34.49560547 C22.59056384 32.84370979 21.43447405 31.19169331 20.27856445 29.53955078 C17.20418081 25.14583648 14.12605461 20.75480076 11.04296875 16.3671875 C10.39779297 15.44808594 9.75261719 14.52898437 9.08789062 13.58203125 C7.8441912 11.81043064 6.59944061 10.03956738 5.35351562 8.26953125 C4.79728516 7.47675781 4.24105469 6.68398437 3.66796875 5.8671875 C3.17578857 5.16706543 2.6836084 4.46694336 2.17651367 3.74560547 C1 2 1 2 0 0 Z " fill="#020202" transform="translate(144,125)"/>
</svg>
