<?xml version="1.0" standalone="no"?><!DOCTYPE svg PUBLIC "-//W3C//DTD SVG 1.1//EN" "http://www.w3.org/Graphics/SVG/1.1/DTD/svg11.dtd"><svg t="1623481622896" class="icon" viewBox="0 0 1024 1024" version="1.1" xmlns="http://www.w3.org/2000/svg" p-id="2472" xmlns:xlink="http://www.w3.org/1999/xlink" width="200" height="200"><defs><style type="text/css"></style></defs><path d="M758.656 501.19168c-39.80288-7.80288-20.42368-29.11744-20.42368-29.11744s38.912-64.3072-7.78752-111.104c-57.79456-57.89184-198.4768 7.28064-198.4768 7.28064-53.64736 16.63488-39.45984-7.6288-31.84128-48.88064 0-48.70656-16.6144-131.03616-159.744-82.50368-142.92992 49.0496-265.62048 220.4672-265.62048 220.4672-85.28384 113.87904-74.0352 201.9328-74.0352 201.9328 21.28384 194.47296 227.72224 247.85408 388.30592 260.51072 168.88832 13.17376 396.95872-58.24 466.00192-205.21984 69.2224-147.15904-56.41216-205.39392-96.37888-213.36576z m-357.16608 363.81184c-167.68 7.80288-303.34464-76.288-303.34464-188.23168 0-112.128 135.68-201.92768 303.34464-209.73056 167.85408-7.77728 303.68768 61.53216 303.68768 173.32736s-135.8336 217.0112-303.68768 224.63488z m-33.39776-324.29568c-168.71936 19.75808-149.16096 177.83808-149.16096 177.83808a87.31648 87.31648 0 0 0 45.16864 75.5712c98.63168 53.5552 200.38144 21.14048 251.5968-45.24032 51.39456-66.21184 21.28896-227.75296-147.60448-208.16896z m-42.56768 222.03392c-31.49312 3.64032-56.92928-14.56128-56.92928-40.9088 0-26.17344 22.49216-53.72928 53.98528-57.02144 36.16768-3.47136 59.6992 17.33632 59.6992 43.8528 0.17408 26.16832-25.44128 50.44224-56.76032 54.07744z m99.50208-84.75648c-10.752 7.97184-23.87968 6.93248-29.41952-2.77504a24.78592 24.78592 0 0 1 7.09632-32.06656c12.45696-9.35936 25.43616-6.58432 31.14496 2.77504 5.53984 9.35936 1.536 23.74144-8.82176 32.06656z m415.81568-245.248a27.55584 27.55584 0 0 0 27.17184-23.2192 17.05472 17.05472 0 0 0 0.33792-2.99008c20.59776-185.28768-151.7568-153.39008-151.7568-153.39008a27.73504 27.73504 0 0 0 0 55.46496c123.7248-27.38688 96.5632 96.5376 96.5632 96.5376a27.4176 27.4176 0 0 0 27.67872 27.56096z m-20.0704-323.4304c-59.52512-14.03904-120.96-1.90464-138.0864 1.38752-1.38752 0.17408-2.59584 1.39264-3.80416 1.536a3.2512 3.2512 0 0 0-1.024 0.6912 40.38656 40.38656 0 0 0 10.90048 79.21152 195.54304 195.54304 0 0 0 36.352-8.66304c14.53056-5.89312 138.08128-4.33152 199.33696 98.62656 33.40288 75.22304 14.71488 125.4912 12.288 133.632a119.2448 119.2448 0 0 0-7.95648 38.82496c0 22.18496 17.82272 36.22912 40.14592 36.22912 18.51392 0 34.08896-2.60096 38.58432-33.97632h0.17408c66.10432-219.60704-80.29184-322.73408-186.88-347.52512z" fill="#F62838" p-id="2473"></path></svg>