<?xml version="1.0" encoding="UTF-8"?>
<svg version="1.1" xmlns="http://www.w3.org/2000/svg" width="512" height="512">
<path d="M0 0 C1.01790619 0.00215515 2.03581238 0.0043103 3.08456421 0.00653076 C17.69363523 0.05620146 32.02575853 0.30709809 46.375 3.3125 C47.34985352 3.51117676 48.32470703 3.70985352 49.32910156 3.91455078 C97.7109774 14.03517194 141.69928269 35.9516877 177.375 70.3125 C178.3640332 71.26068604 178.3640332 71.26068604 179.37304688 72.22802734 C188.86130305 81.37247479 197.6012044 90.66984009 205.375 101.3125 C206.23306152 102.46355017 207.09113451 103.61459177 207.94921875 104.765625 C213.98736829 112.95680614 219.34595521 121.47054105 224.375 130.3125 C224.73948242 130.94430176 225.10396484 131.57610352 225.47949219 132.22705078 C247.08534998 169.97532572 256.85198095 212.74189997 256.6875 255.9375 C256.68534485 256.95540619 256.6831897 257.97331238 256.68096924 259.02206421 C256.63129854 273.63113523 256.38040191 287.96325853 253.375 302.3125 C253.07698486 303.77478027 253.07698486 303.77478027 252.77294922 305.26660156 C242.65232806 353.6484774 220.7358123 397.63678269 186.375 433.3125 C185.74287598 433.97185547 185.11075195 434.63121094 184.45947266 435.31054688 C175.31502521 444.79880305 166.01765991 453.5387044 155.375 461.3125 C154.22394983 462.17056152 153.07290823 463.02863451 151.921875 463.88671875 C143.73224019 469.92427396 135.22961724 475.30707302 126.375 480.3125 C125.66778809 480.7146875 124.96057617 481.116875 124.23193359 481.53125 C101.09654164 494.5566741 75.92537591 503.30551461 49.9375 508.625 C49.21860596 508.77235596 48.49971191 508.91971191 47.7590332 509.0715332 C33.08339502 511.86090125 18.55831162 512.66142619 3.64770508 512.62817383 C0.70811513 512.6250221 -2.2304558 512.64854926 -5.16992188 512.67382812 C-18.54306192 512.71848737 -31.43916711 511.51301542 -44.625 509.3125 C-46.33055054 509.03031616 -46.33055054 509.03031616 -48.07055664 508.74243164 C-91.33802759 500.97044532 -132.38793216 480.98345309 -165.625 452.3125 C-166.37007813 451.67828125 -167.11515625 451.0440625 -167.8828125 450.390625 C-181.38779833 438.57948485 -194.05918743 425.82889772 -204.625 411.3125 C-205.48149066 410.16255169 -206.33826433 409.01281411 -207.1953125 407.86328125 C-213.23534209 399.67315742 -218.61867614 391.16870382 -223.625 382.3125 C-224.0271875 381.60528809 -224.429375 380.89807617 -224.84375 380.16943359 C-237.8691741 357.03404164 -246.61801461 331.86287591 -251.9375 305.875 C-252.08485596 305.15610596 -252.23221191 304.43721191 -252.3840332 303.6965332 C-255.35789088 288.05024391 -255.99800362 272.57681954 -255.9375 256.6875 C-255.93534485 255.66959381 -255.9331897 254.65168762 -255.93096924 253.60293579 C-255.88129854 238.99386477 -255.63040191 224.66174147 -252.625 210.3125 C-252.42632324 209.33764648 -252.22764648 208.36279297 -252.02294922 207.35839844 C-241.90232806 158.9765226 -219.9858123 114.98821731 -185.625 79.3125 C-184.99287598 78.65314453 -184.36075195 77.99378906 -183.70947266 77.31445312 C-174.56502521 67.82619695 -165.26765991 59.0862956 -154.625 51.3125 C-153.47394983 50.45443848 -152.32290823 49.59636549 -151.171875 48.73828125 C-142.98224019 42.70072604 -134.47961724 37.31792698 -125.625 32.3125 C-124.91778809 31.9103125 -124.21057617 31.508125 -123.48193359 31.09375 C-100.34654164 18.0683259 -75.17537591 9.31948539 -49.1875 4 C-48.46860596 3.85264404 -47.74971191 3.70528809 -47.0090332 3.5534668 C-31.36274391 0.57960912 -15.88931954 -0.06050362 0 0 Z " fill="#FF0000" transform="translate(255.625,-0.3125)"/>
<path d="M0 0 C0.75731391 -0.00226556 1.51462782 -0.00453111 2.29489064 -0.00686532 C4.83424352 -0.01319878 7.37354293 -0.01237637 9.91290283 -0.0115509 C11.73300241 -0.01454285 13.55310136 -0.01794546 15.37319946 -0.02172852 C20.31962638 -0.03057026 25.266036 -0.03290674 30.21247005 -0.0335443 C34.3425341 -0.0344937 38.47259411 -0.03817246 42.6026566 -0.0417164 C52.34897773 -0.04986203 62.09528963 -0.05230058 71.84161377 -0.05158997 C81.8912752 -0.0509895 91.94088289 -0.06153494 101.99053073 -0.07733363 C110.62081618 -0.09041693 119.25108408 -0.09577351 127.88137937 -0.09513456 C133.03477698 -0.09487975 138.18812686 -0.09772113 143.34151459 -0.10831261 C148.1907661 -0.11800655 153.0399244 -0.11806384 157.88917923 -0.11079597 C159.66608695 -0.10975167 161.44300051 -0.11210387 163.21989822 -0.11815643 C165.65175322 -0.12590139 168.08328836 -0.12121508 170.51513672 -0.11352539 C171.21282189 -0.11866895 171.91050706 -0.12381252 172.62933421 -0.12911195 C184.96814146 -0.04331522 197.89851034 5.65179629 206.77716064 14.20793152 C217.46188344 26.07182417 221.65343074 39.26945959 221.67266846 54.98771667 C221.67763336 55.96418152 221.68259827 56.94064636 221.68771362 57.94670105 C221.70228289 61.16789972 221.70912935 64.3890491 221.71466064 67.61027527 C221.7204174 69.85981751 221.72617507 72.10935974 221.73193359 74.35890198 C221.7424294 79.07469409 221.74828103 83.79046922 221.75177002 88.50627136 C221.75724473 94.52480157 221.78125709 100.54310441 221.80974197 106.56156349 C221.82844377 111.20979957 221.83357801 115.85798178 221.8351059 120.50625229 C221.83811709 122.72363398 221.84609328 124.94101507 221.85929108 127.15835953 C221.96478648 146.24861403 220.7062718 163.47664175 206.76934814 178.10246277 C199.66138591 184.49716928 191.60775737 188.39157786 182.51153564 191.13371277 C181.95585938 191.31066272 181.40018312 191.48761267 180.82766819 191.66992474 C177.57159239 192.3219293 174.34983526 192.28174902 171.04325867 192.28088379 C170.28806145 192.28456048 169.53286424 192.28823717 168.75478226 192.29202527 C166.2224399 192.30304433 163.6901386 192.30690296 161.15777588 192.31071472 C159.34254324 192.31698083 157.52731187 192.32362776 155.71208191 192.33062744 C149.7481068 192.35165671 143.78413148 192.36203033 137.82012939 192.37199402 C135.76491851 192.37604232 133.70970776 192.38015926 131.65449715 192.3843441 C121.99612279 192.40339507 112.33775606 192.41762502 102.67936653 192.42595607 C91.54251702 192.43572166 80.40586663 192.46202393 69.26908726 192.50245696 C60.65404229 192.53265744 52.03905426 192.54742877 43.42395741 192.55073708 C38.28213067 192.55308351 33.14051667 192.5619907 27.99874687 192.58719826 C23.15679966 192.6105521 18.31520414 192.61468286 13.4732151 192.60443687 C11.70239464 192.60394314 9.93155643 192.61021529 8.16078949 192.62399292 C-8.06904143 192.74313816 -21.54954096 189.06000889 -33.83612061 177.87199402 C-44.71101712 166.43150005 -48.63073814 152.68855544 -48.64959717 137.27970886 C-48.65704453 135.8150116 -48.65704453 135.8150116 -48.66464233 134.32072449 C-48.6792116 131.09952582 -48.68605806 127.87837644 -48.69158936 124.65715027 C-48.69734612 122.40760803 -48.70310378 120.15806579 -48.7088623 117.90852356 C-48.71935811 113.19273145 -48.72520974 108.47695631 -48.72869873 103.76115417 C-48.73417344 97.74262397 -48.7581858 91.72432113 -48.78667068 85.70586205 C-48.80537249 81.05762596 -48.81050672 76.40944376 -48.81203461 71.76117325 C-48.8150458 69.54379156 -48.823022 67.32641047 -48.83621979 65.10906601 C-48.93843206 46.61291963 -47.95074283 29.2012966 -34.45721436 14.93840027 C-24.72311226 6.01547335 -13.27997389 -0.02910439 0 0 Z " fill="#FFFEFE" transform="translate(169.48846435546875,159.8662872314453)"/>
<path d="M0 0 C3.45264216 1.38105686 6.38149288 2.67576203 9.5703125 4.4765625 C10.45323975 4.97446289 11.33616699 5.47236328 12.24584961 5.98535156 C13.19596924 6.52643555 14.14608887 7.06751953 15.125 7.625 C16.12474854 8.19186523 17.12449707 8.75873047 18.15454102 9.34277344 C27.29664343 14.55073689 36.34214996 19.91646698 45.38061523 25.30126953 C53.84612771 30.33854834 62.37349656 35.24419412 71 40 C71 40.66 71 41.32 71 42 C70.16698364 42.4650293 70.16698364 42.4650293 69.31713867 42.93945312 C57.54211311 49.52493603 45.84525946 56.22784823 34.25 63.125 C32.55568848 64.13240234 32.55568848 64.13240234 30.82714844 65.16015625 C29.71500977 65.82144531 28.60287109 66.48273438 27.45703125 67.1640625 C21.628759 70.62933445 15.79323252 74.08131565 9.9375 77.5 C8.75945801 78.19440186 8.75945801 78.19440186 7.55761719 78.90283203 C2.23198438 82 2.23198438 82 0 82 C0 54.94 0 27.88 0 0 Z " fill="#FF0505" transform="translate(220,215)"/>
</svg>
